<?xml version="1.0" standalone="no"?>
<!DOCTYPE svg PUBLIC "-//W3C//DTD SVG 20010904//EN"
 "http://www.w3.org/TR/2001/REC-SVG-20010904/DTD/svg10.dtd">
<svg version="1.0" xmlns="http://www.w3.org/2000/svg"
 width="250.000000pt" height="40.000000pt" viewBox="0 0 250.000000 40.000000"
 preserveAspectRatio="xMidYMid meet">

<g transform="translate(0.000000,40.000000) scale(0.100000,-0.100000)"
fill="#000000" stroke="none">
<path d="M23 393 c21 -3 33 -15 49 -49 20 -40 25 -44 59 -44 47 0 88 -33 97
-78 7 -32 9 -29 51 67 38 86 48 101 68 101 26 0 29 -14 8 -50 -21 -37 -19 -40
30 -40 33 0 45 -4 45 -15 0 -12 -13 -15 -55 -15 -54 0 -55 0 -55 -30 0 -30 1
-30 55 -30 42 0 55 -3 55 -15 0 -12 -13 -15 -55 -15 l-55 0 0 -40 0 -40 60 0
60 0 0 145 0 145 130 0 c123 0 130 -1 130 -20 0 -19 -7 -20 -105 -20 -105 0
-105 0 -105 -25 0 -23 4 -24 63 -27 59 -3 63 -5 77 -35 8 -18 23 -33 33 -33
10 0 17 -8 17 -20 0 -16 -7 -20 -36 -20 -20 0 -34 -3 -32 -7 2 -5 16 -32 31
-60 l27 -53 -24 0 c-19 0 -29 10 -46 45 -12 25 -28 45 -35 45 -7 0 -20 3 -29
6 -13 5 -16 -2 -16 -44 0 -40 -4 -52 -17 -55 -10 -3 33 -5 95 -6 105 -1 112
-2 112 -21 0 -19 -7 -20 -135 -20 l-135 0 0 25 c0 25 -1 25 -80 25 l-80 0 -1
48 0 47 -34 -72 c-29 -63 -37 -73 -60 -73 -18 0 -28 7 -35 25 -9 23 -15 25
-65 25 l-55 0 0 128 c-1 91 -5 134 -15 152 -13 22 -14 5 -15 -162 l0 -188
1250 0 c827 0 1250 3 1250 10 0 6 -13 10 -30 10 -20 0 -35 8 -46 25 -9 14 -23
25 -31 25 -7 0 -22 13 -31 30 -12 22 -24 30 -44 30 -24 0 -28 -4 -28 -30 0
-23 -5 -30 -19 -30 -15 0 -21 8 -24 33 -2 19 -4 10 -5 -25 -2 -55 -3 -58 -27
-58 -24 0 -24 0 -27 113 l-3 112 -22 -36 c-16 -25 -23 -52 -23 -88 0 -44 -3
-51 -20 -51 -18 0 -20 7 -21 58 l0 57 -21 -56 c-18 -47 -28 -59 -68 -82 -25
-14 -64 -29 -86 -33 -46 -7 -117 10 -155 37 -15 10 -36 19 -47 19 -10 0 -31
11 -45 25 -45 46 -46 136 0 178 13 12 44 41 68 63 24 23 60 46 82 52 26 7
-246 10 -897 9 -514 0 -922 -2 -907 -4z m885 -61 c23 -31 56 -73 72 -92 l29
-35 20 48 c15 34 26 47 41 47 17 0 20 6 20 45 0 41 2 45 25 45 23 0 25 -3 25
-47 l0 -48 65 0 65 0 0 48 0 47 108 0 c119 0 172 -17 209 -64 12 -14 28 -26
38 -26 12 0 15 -5 10 -19 -3 -11 -7 -47 -9 -80 -2 -46 -10 -70 -30 -101 -41
-63 -88 -80 -218 -80 l-108 0 0 28 c0 27 -1 27 -65 27 -64 0 -65 0 -65 -27 0
-44 -41 -38 -81 12 -34 42 -49 50 -49 25 0 -10 -10 -15 -28 -15 -26 0 -30 6
-72 118 l-45 117 -3 -142 c-2 -135 -4 -143 -22 -143 -15 0 -20 7 -20 25 0 24
-3 25 -60 25 l-60 0 0 115 0 115 60 0 60 0 0 45 c0 40 2 45 23 45 15 -1 35
-19 65 -58z"/>
<path d="M1320 205 l0 -145 73 0 c113 0 115 4 67 128 -22 56 -40 105 -40 108
0 3 10 4 22 2 18 -2 29 -20 54 -88 l32 -85 17 38 c26 63 29 92 9 121 -28 44
-83 66 -164 66 l-70 0 0 -145z m70 -115 c0 -13 -7 -20 -20 -20 -13 0 -20 7
-20 20 0 13 7 20 20 20 13 0 20 -7 20 -20z"/>
<path d="M1063 224 l-22 -57 22 -31 22 -31 3 42 c2 23 2 63 0 88 l-3 45 -22
-56z"/>
<path d="M740 240 c0 -28 2 -30 40 -30 38 0 40 2 40 30 0 28 -2 30 -40 30 -38
0 -40 -2 -40 -30z"/>
<path d="M1157 242 c-23 -26 -22 -94 1 -115 25 -22 75 -21 95 1 23 26 22 94
-1 115 -25 22 -75 21 -95 -1z"/>
<path d="M740 140 l0 -40 40 0 40 0 0 40 0 40 -40 0 -40 0 0 -40z"/>
<path d="M961 175 c1 -22 16 -48 22 -38 3 5 0 19 -8 29 -8 10 -14 15 -14 9z"/>
<path d="M1952 390 c50 -15 94 -49 114 -87 10 -21 27 -48 36 -61 l17 -23 27
40 c15 23 31 41 35 41 5 0 9 20 9 45 l0 45 106 0 c121 0 161 -16 184 -70 19
-47 7 -120 -24 -147 -14 -12 -26 -29 -26 -38 0 -14 30 -62 62 -100 4 -5 8 75
8 178 l0 187 -287 -1 c-168 0 -277 -4 -261 -9z"/>
<path d="M1831 339 c-50 -20 -55 -31 -21 -45 60 -26 77 -132 31 -194 l-20 -28
22 -6 c12 -3 40 -5 62 -5 22 1 32 3 23 6 -16 4 -18 18 -18 119 0 107 1 114 20
114 19 0 20 -7 20 -100 0 -98 0 -100 23 -100 42 0 62 34 62 105 0 54 -4 67
-25 90 -48 52 -117 69 -179 44z"/>
<path d="M2242 263 c2 -77 2 -80 5 -25 4 62 5 63 30 60 21 -2 33 -16 57 -60
41 -76 56 -75 56 2 0 53 2 60 20 60 16 0 20 -7 21 -37 1 -26 3 -30 6 -14 13
68 -29 101 -132 101 l-65 0 2 -87z"/>
<path d="M520 250 c0 -16 7 -20 35 -20 41 0 46 16 9 30 -36 14 -44 13 -44 -10z"/>
<path d="M136 203 c32 -73 40 -81 48 -47 14 56 -13 104 -58 104 -13 0 -11 -10
10 -57z"/>
<path d="M1745 227 c-6 -33 19 -117 35 -117 18 0 42 42 42 75 0 69 -65 105
-77 42z"/>
<path d="M2290 207 c0 -18 5 -27 15 -27 13 0 14 4 4 23 -17 33 -19 33 -19 4z"/>
<path d="M71 158 c-1 -58 7 -69 36 -50 9 6 6 20 -12 57 l-23 50 -1 -57z"/>
<path d="M1692 160 c0 -14 2 -19 5 -12 2 6 2 18 0 25 -3 6 -5 1 -5 -13z"/>
</g>
</svg>
